<svg width="434" height="435" viewBox="0 0 434 435" fill="none" xmlns="http://www.w3.org/2000/svg">
<ellipse cx="220.555" cy="123.998" rx="36.267" ry="36.267" fill="#E5E5E5"/>
<circle cx="220.561" cy="124.001" r="32.1695" fill="#7B999C"/>
<ellipse cx="165.778" cy="191.422" rx="28.4881" ry="28.4881" fill="#E5E5E5"/>
<ellipse cx="165.777" cy="191.421" rx="22.6107" ry="22.6107" fill="#7B999C"/>
<path d="M189.337 127.865L202.334 144.784L197.062 145.887L190.686 147.972L178.302 168.936L177.323 173.963L178.302 179.113L164.693 170.775C169.882 169.023 172.188 167.414 174.742 162.929L187.865 140.002L189.337 127.865Z" fill="#7B999C"/>
<ellipse cx="321.386" cy="195.33" rx="36.267" ry="36.267" transform="rotate(73.3338 321.386 195.33)" fill="#E5E5E5"/>
<ellipse cx="321.385" cy="195.328" rx="32.1695" ry="32.1695" transform="rotate(73.3338 321.385 195.328)" fill="#7B999C"/>
<circle cx="241.084" cy="162.19" r="28.4881" transform="rotate(73.3338 241.084 162.19)" fill="#E5E5E5"/>
<ellipse cx="241.088" cy="162.186" rx="22.6107" ry="22.6107" transform="rotate(73.3338 241.088 162.186)" fill="#7B999C"/>
<path d="M308.731 166.527L296.25 183.83L293.681 179.096L289.855 173.586L266.22 167.735L261.123 168.238L256.471 170.653L260.555 155.225C263.722 159.693 265.925 161.44 270.954 162.601L296.681 168.598L308.731 166.527Z" fill="#7B999C"/>
<circle cx="244.425" cy="304.698" r="36.267" transform="rotate(172.867 244.425 304.698)" fill="#E5E5E5"/>
<ellipse cx="244.425" cy="304.697" rx="32.1695" ry="32.1695" transform="rotate(172.867 244.425 304.697)" fill="#7B999C"/>
<circle cx="290.41" cy="230.995" r="28.4881" transform="rotate(172.867 290.41 230.995)" fill="#E5E5E5"/>
<ellipse cx="290.406" cy="230.994" rx="22.6107" ry="22.6108" transform="rotate(172.867 290.406 230.994)" fill="#7B999C"/>
<path d="M274.928 296.985L259.93 281.811L265.025 280.061L271.092 277.201L280.777 254.861L281.124 249.751L279.513 244.763L294.052 251.346C289.121 253.73 287.034 255.612 285.056 260.38L274.881 284.759L274.928 296.985Z" fill="#7B999C"/>
<circle cx="119.772" cy="198.61" r="36.267" transform="rotate(-76.8699 119.772 198.61)" fill="#E5E5E5"/>
<ellipse cx="119.778" cy="198.612" rx="32.1695" ry="32.1695" transform="rotate(-76.8699 119.778 198.612)" fill="#7B999C"/>
<ellipse cx="172.989" cy="267.273" rx="28.4881" ry="28.4881" transform="rotate(-76.8699 172.989 267.273)" fill="#E5E5E5"/>
<circle cx="172.989" cy="267.277" r="22.6107" transform="rotate(-76.8699 172.989 267.277)" fill="#7B999C"/>
<path d="M116.45 229.898L135.879 221.084L135.756 226.469L136.338 233.152L153.941 249.974L158.614 252.07L163.851 252.286L152.641 263.645C152.113 258.194 151.069 255.583 147.282 252.077L127.936 234.088L116.45 229.898Z" fill="#7B999C"/>
</svg>
