<svg width="41" height="41" viewBox="0 0 41 41" fill="none" xmlns="http://www.w3.org/2000/svg">
<path d="M13.983 19.4979H6.16634C6.29967 11.7145 7.83301 10.4312 12.6163 7.59787C13.1663 7.26454 13.3497 6.56454 13.0163 5.99787C12.6997 5.44787 11.983 5.26454 11.433 5.59787C5.79967 8.9312 3.83301 10.9645 3.83301 20.6479V29.6312C3.83301 32.4812 6.14967 34.7812 8.98301 34.7812H13.983C16.9163 34.7812 19.133 32.5645 19.133 29.6312V24.6312C19.133 21.7145 16.9163 19.4979 13.983 19.4979Z" fill="url(#paint0_linear_1386_6188)"/>
<path d="M32.0163 19.4979H24.1996C24.3329 11.7145 25.8663 10.4312 30.6496 7.59787C31.1996 7.26454 31.3829 6.56454 31.0496 5.99787C30.7163 5.44787 30.0163 5.26454 29.4496 5.59787C23.8163 8.9312 21.8496 10.9645 21.8496 20.6645V29.6479C21.8496 32.4979 24.1663 34.7979 26.9996 34.7979H31.9996C34.9329 34.7979 37.1496 32.5812 37.1496 29.6479V24.6479C37.1663 21.7145 34.9496 19.4979 32.0163 19.4979Z" fill="url(#paint1_linear_1386_6188)"/>
<defs>
<linearGradient id="paint0_linear_1386_6188" x1="3.83301" y1="5.43115" x2="27.8944" y2="17.9742" gradientUnits="userSpaceOnUse">
<stop stop-color="#F87544"/>
<stop offset="1" stop-color="#F54B0C"/>
</linearGradient>
<linearGradient id="paint1_linear_1386_6188" x1="21.8496" y1="5.43115" x2="45.9169" y2="17.9702" gradientUnits="userSpaceOnUse">
<stop stop-color="#F87544"/>
<stop offset="1" stop-color="#F54B0C"/>
</linearGradient>
</defs>
</svg>
